<svg xmlns="http://www.w3.org/2000/svg" viewBox="0 0 1280 374" width="1280" height="374"><title>Novo Projeto</title><style>		.s0 { fill: #006fff } 		.s1 { fill: #61b3ff } 	</style><path id="Path 2" class="s0" d="m29.1 373.3h107.1c19.4 0 38.6-15.9 42.7-35.4l52.9-250.9c4.1-19.5-8.5-35.4-27.9-35.4h-107.1c-19.4 0-38.7 15.9-42.7 35.4l-52.9 250.9c-4.1 19.5 8.5 35.4 27.9 35.4z"></path><path id="Path 3" fill-rule="evenodd" class="s0" d="m406 177.4q2.4-5 6.5-7.7 4.1-2.9 10.3-4.4 6.3-1.5 14.7-1.5h58.4l-1.9 15.6h-54.4q-6.5 0-9.4 2.5-1.6 1.4-2.6 3.7-0.8 2.1-1.1 5l-1.2 9.7h38.8l-1.9 16.5h-38.8l-9.7 82.8h-24l12.8-109.4q0.9-7.6 3.5-12.8zm61.4 120.4q-3.3-1-5.9-2.2-2.5-1.3-4.2-2.8-1.7-1.6-2.8-3.5-1.1-1.8-1.6-4-0.5-2.4-0.6-5.1-0.1-2.7 0.2-5.8l1.2-10q0.4-3.2 1.1-6 0.7-2.7 1.8-5.2 1-2.3 2.5-4.2 1.5-2 3.5-3.6 2.1-1.6 4.8-2.9 2.7-1.2 6.2-2.1 3.5-0.9 7.9-1.4 4.4-0.4 9.9-0.4h81.2l0.2-1.8q0.7-5.4 0-9.3-0.8-4.2-3.3-6.6-2.4-2.1-6.4-3.2-3.7-0.9-9-0.9h-64.1l1.9-16.5h64.8q6.3 0 11.4 0.5h0.1q5.1 0.6 9.2 1.7 4.1 1.1 7.3 2.8 3.2 1.6 5.5 3.8 2.2 2.1 3.8 4.8 1.5 2.8 2.3 6.1 0.9 3.4 1 7.5 0.2 4.2-0.4 9.2l-2.8 24q-0.7 5.6-1.8 10.3-1.1 4.7-2.6 8.4-1.5 3.7-3.6 6.6-2.1 2.9-5 5.2-2.8 2.2-6.4 3.8-3.7 1.7-8.2 2.6-4.7 1-10.5 1.5-5.8 0.5-12.7 0.5h-57.7q-5.7 0-10.3-0.4-4.4-0.5-7.9-1.4zm19.7-45.7q-2.5 0.7-4.5 2.1-2.2 1.5-3.5 4.3-1.2 2.5-1.6 6.1l-0.8 7.3q-0.4 3.3 0.3 5.8 0.8 2.8 2.9 4.4 1.9 1.4 4.6 2.1 2.4 0.6 5.6 0.6h55.1q2.7 0 5-0.2 2.3-0.2 4.5-0.6 2.2-0.5 4-1.3 2-0.9 3.5-2.1 1.6-1.2 2.9-3 1.2-1.7 2.1-3.8 0.9-2.1 1.5-4.7 0.7-2.6 1-5.7l1.4-12h-78.7q-2.9 0-5.3 0.7zm241.5 34.2q-0.9 2.4-2.3 4.3-1.4 1.8-3.3 3.3-1.9 1.5-4.5 2.5-2.7 1.1-6 1.8-3.4 0.7-7.9 1.1-4.4 0.3-10 0.3h-88.7l2.1-17.7h85.6q3.2 0 5.7-0.6 2.6-0.6 4.4-1.9 1.8-1.4 2.9-3.9 1-2.3 1.3-5.4l0.4-3.5q0.4-3.4 0-5.6-0.5-2.9-2.5-4.3-1.5-1-3.9-1.5-2.1-0.4-5-0.4h-59.8q-4.4 0-7.8-0.4-3.4-0.5-5.8-1.3-2.4-0.7-4.1-1.9-1.7-1.1-2.8-2.5-2.3-2.9-2.7-7.4-0.4-4.9 0.4-11.7l0.7-6.1q0.4-3.3 1.1-6.1 0.6-2.7 1.6-5 0.9-2.2 2.1-3.9 1.3-1.7 2.9-3 1.5-1.3 3.6-2.3 2.2-1 4.9-1.6 2.8-0.7 6.2-1 3.4-0.3 7.7-0.3h63.1l-2 16.5h-56.6q-2.4 0-4.4 0.5-2.1 0.5-3.6 1.6-1.5 1.2-2.4 3.3-0.8 1.8-1.1 4.2l-0.4 3.4q-0.3 2.6 0 4.5 0.4 2.3 1.8 3.7 1.3 1.3 3.3 1.9 1.8 0.5 4.1 0.5h57.8q9.9 0 15.9 1.6 2.8 0.7 5 1.9 2 1.1 3.3 2.6 1.4 1.5 2.2 3.4 0.9 2 1.2 4.6 0.3 2.8 0.2 6.1 0 3.4-0.5 7.5l-0.7 5.5q-0.4 3.9-1.1 7-0.7 3.2-1.6 5.7zm30.3-69.5h-21.2l2-16.5h21.1l3.8-32.1h24.6l-3.7 32.1h33.6l-1.9 16.5h-33.7l-9.7 82.8h-24.6l9.4-79.9zm199.3-11.4q3.4 1.8 5.7 4.2 2.3 2.4 3.8 5.6 1.5 3.2 2.2 7.3 1.3 8.4-0.1 20.9l-1.7 14.4c-0.5 4.1-0.9 6.2-1.7 9.7q-1.2 5.2-2.9 9.3-1.6 4.1-3.9 7.4-2.3 3.2-5.3 5.7-3.1 2.6-6.9 4.4-4 1.8-8.7 3-9.8 2.4-24.5 2.4h-61.8l-3.7 31.8h-24l10.2-87.5q0.8-6.3 2-11.5 1.2-5.2 2.8-9.5 1.7-4.1 4-7.4 2.3-3.3 5.3-5.8 3-2.5 6.9-4.3 3.9-1.9 8.7-3 4.9-1.2 11-1.8 6-0.6 13.5-0.6h37.4q14.6 0 23.8 2.3 4.4 1.2 7.9 3zm-12.1 25.5q-0.4-2.6-1.4-4.6-1-2.1-2.8-3.7-1.6-1.5-3.9-2.4-2.2-0.9-5-1.4-2.6-0.4-5.9-0.6-3.3-0.2-7.1-0.2h-32.7q-3.5 0-6.5 0.3-3 0.2-5.5 0.8-2.6 0.5-4.8 1.5-2.2 1-3.9 2.5-1.7 1.5-3 3.5-1.2 1.9-2.1 4.3-0.8 2.3-1.4 5.1-0.6 2.9-1 6.2l-4.4 37.8h58.9q3.7-0.1 7.1-0.2 3.3-0.2 5.9-0.6 2.8-0.4 5.1-1.2 2.4-0.9 4.3-2.3 2-1.4 3.4-3.4 1.4-2 2.4-4.5 0.8-2.3 1.5-5.4 0.6-3.1 1-6.8l1.5-12.6q0.4-3.6 0.5-6.7 0.1-3-0.2-5.4zm49.2 66.9q-3.4-0.9-6-2.2-2.5-1.2-4.2-2.8-1.7-1.6-2.8-3.4-1.1-1.9-1.6-4.1-0.5-2.4-0.6-5-0.1-2.7 0.3-5.8l1.2-10.1q0.3-3.2 1-5.9 0.7-2.8 1.8-5.2 1-2.3 2.5-4.3 1.5-1.9 3.6-3.6 2-1.6 4.7-2.8 2.8-1.3 6.2-2.2 3.6-0.9 8-1.3 4.4-0.5 9.8-0.5h81.3l0.2-1.7q0.6-5.5-0.1-9.3-0.8-4.3-3.3-6.6-2.4-2.2-6.4-3.2-3.7-1-8.9-1h-61.2l1.9-16.5h61.8q6.3 0 11.5 0.6 5.1 0.5 9.3 1.7 4 1.1 7.2 2.7 3.2 1.7 5.5 3.8 2.3 2.2 3.8 4.9 1.6 2.7 2.4 6 0.8 3.5 0.9 7.6 0.2 4.1-0.4 9.1l-2.8 24q-0.7 5.6-1.8 10.4-1 4.7-2.6 8.4-1.4 3.6-3.6 6.5-2.1 3-4.9 5.2-2.8 2.2-6.5 3.9-3.7 1.6-8.2 2.6-4.6 1-10.4 1.5-5.8 0.5-12.8 0.5h-57.7q-5.7 0-10.2-0.5-4.5-0.5-7.9-1.4zm19.6-45.7q-2.5 0.7-4.5 2.1-2.2 1.6-3.5 4.3-1.1 2.6-1.5 6.1l-0.9 7.3q-0.4 3.4 0.3 5.8 0.8 2.9 3 4.5 1.8 1.4 4.5 2 2.5 0.7 5.6 0.7h55.1q2.7 0 5.1-0.2 2.3-0.2 4.4-0.7 2.2-0.4 4.1-1.3 1.9-0.8 3.5-2 1.5-1.3 2.8-3.1 1.2-1.6 2.1-3.8 0.9-2 1.6-4.7 0.6-2.6 1-5.7l1.4-11.9h-78.7q-2.9 0-5.4 0.6zm151.5 13.2q2.2 2.2 6 3.3 3.5 0.9 8.4 0.9h67.8l8.1-69.2h23.3l-11.7 99.7q-1 8.6-3.8 14.7-2.7 5.9-7.1 9.5-4.5 3.6-11.4 5.4-7.1 1.9-16.8 1.9h-39.8l2.2-18.7h37.8q3.4 0 6-0.7 2.8-0.7 4.8-2.2 2.2-1.6 3.4-4.5 1.1-2.6 1.6-6.3l1.3-11.6h-70.2q-11.7 0-19.4-2.2-3.8-1-6.7-2.6-2.8-1.6-4.9-3.7-2.1-2.1-3.4-4.7-1.4-2.6-2.1-5.8-1.4-6.7-0.4-15.9l6.2-52.3h23.6l-5.9 50.5q-0.6 4.9 0.1 8.4 0.7 3.8 3 6.1z"></path><path id="Path 4" class="s0" d="m155.5 263h94c16.7 0 32.9-13.7 36.1-30.3l7.3-38.6c3.2-16.6-7.9-30.3-24.5-30.3h-118.5c-16.6 0-32.8 13.6-36 30.3l-7.4 38.6-16.9 77.5zm1.9-125.7h207.2c16.7 0 33.1-13.7 36.6-30.3l15.7-75.8c3.4-16.7-7.4-30.3-24.1-30.3h-207.2c-16.7 0-33.1 13.6-36.6 30.3l-15.7 75.8c-3.4 16.6 7.4 30.3 24.1 30.3z"></path><path id="Path 5" class="s1" d="m194.7 263l20.9-99.2h-65.7c-16.6 0-32.8 13.7-36 30.3l-7.4 38.6-16.9 77.5 65.9-47.2zm26.5-125.8l10.6-50.2c4.1-19.5-8.5-35.4-27.9-35.4h-59.1l-11.4 55.3c-3.5 16.7 7.4 30.3 24 30.3z"></path></svg>